<?xml version="1.0" encoding="utf-8"?>
<!-- Generator: Adobe Illustrator 25.4.1, SVG Export Plug-In . SVG Version: 6.00 Build 0)  -->
<svg version="1.1" id="Layer_1" xmlns="http://www.w3.org/2000/svg" xmlns:xlink="http://www.w3.org/1999/xlink" x="0px" y="0px"
	 viewBox="0 0 814.2 694.8" style="enable-background:new 0 0 814.2 694.8;" xml:space="preserve">
<style type="text/css">
	.st0{fill:#f44336;}
</style>
<g id="Layer_2_00000057853986959408802750000001667984962653728409_">
	<g id="Layer_2-2">
		<path class="st0" d="M786.2,251.9l-116.4-32.5c0,0,6.1-49.4-38.1-91.7c-44-42.1-105.2-64.8-173.8-65.9
			c-68.2-1.1-104.5,12.9-137.8,34.4c-33,21.3-63.2,60-63.8,102.2c-0.5,36,25.3,64.4,32.6,73.1c14.8,17.7,41.3,40.6,72.8,56.8
			c18.8,9.7,64,23.3,113.5,23c35.5-0.3,64-7,99-27.5l-77-54l38.5-43l224,132.5c0,0-32.8,50-118.2,79.2
			c-60.1,20.6-95.2,25.3-145.8,25.2c-61,0-131.2-14.8-167-28.8c-37.6-14.7-85.3-30-133-81.5c-49.8-53.7-52.2-103.2-52.9-123.6
			c-0.8-24.5,7.9-59.6,21.9-80.3c14.1-20.8,33-39.3,33-39.3l-48-33.5l47.8-26.1l72.6,8.2c4.5-3.2,9.4-5.9,14.4-8.2
			c5.1-2.4,10.4-4.5,15.8-6.2l-1.5-30.1l58-12l36.5,22.5c0,0,9.4-0.9,16.8-1.6c8.5-0.8,22.2-1.4,22.2-1.4L455.8,0l58.4,6l18.4,25.4
			c5.7,1,11.3,2.3,16.8,3.9c5.5,1.7,10.8,3.8,16.1,6.1l46.1-11.6l54.9,21.4l-5,27.5c0,0,4.4,2.3,14.6,10.1
			c4.6,3.5,8.9,7.4,12.8,11.6l75.6,0.8l44.8,37.8l-54.8,23c8,11.7,14.6,24.3,19.8,37.5C784.3,225.3,786.2,251.9,786.2,251.9z"/>
		<path class="st0" d="M620.3,276.7c0,0-5.2-51.6-48.2-85.3c-42-32.9-84.4-45.7-121.8-44.8c-23.2,0.5-51.1,3.7-87.4,21.4
			c-20.5,10-37.3,25.6-48.5,39.4c-16,19.7-16,49.2-16,49.2c-16.3-20-21.4-35.8-21.4-62.2c0-40.1,25.2-65,43.7-78.3
			c17.7-13.1,37.6-23,58.7-29.3c26.8-8,54-11.8,86.5-11.3c34.8,0.5,56.9,7.4,63.9,9.4c22.5,6.2,45.2,18,69.5,36
			c17.5,13,36.2,33,44.8,51.2c4.5,9.6,13.8,30.5,10.7,54L620.3,276.7z"/>
		<polyline class="st0" points="768.5,169.3 814.2,146.3 776.7,195.1 		"/>
		<path class="st0" d="M302.3,263.9c0,0,37.9,33.8,84.4,50.8s79.7,14,79.7,14l5.1-59.2l47.3-45.2h9.5l-48.5,48.2l76,50.2
			c0,0-52.4,27.1-132.5,12.9C343.3,321.4,302.3,263.9,302.3,263.9z"/>
		<path class="st0" d="M145.5,80.5l40.3,30.3c0,0-5.2,4.3-8.5,7.3s-8.2,8.2-8.2,8.2L145.5,80.5z"/>
		<polygon class="st0" points="157.7,140.1 62.7,153.3 26.3,206.6 119.7,220.3 		"/>
		<polygon class="st0" points="24.6,214.9 116.2,231.8 116.2,272.1 74.2,272.1 		"/>
		<polygon class="st0" points="108.8,277.5 0,345.5 22.5,424.1 148.8,381.1 		"/>
		<polygon class="st0" points="121.2,253.1 121.2,284.1 160.5,378.1 183.5,389.1 		"/>
		<polygon class="st0" points="163.2,389.1 26.3,433.5 84.8,466.5 213.3,436.8 190.8,400.8 		"/>
		<polygon class="st0" points="209.2,411.5 220.3,438.5 377.8,504.5 410.8,501.5 		"/>
		<polygon class="st0" points="220.8,451.8 148.8,594.8 266.5,655.8 363.8,511.8 		"/>
		<polygon class="st0" points="510.2,677.5 453.8,547.5 424.2,535.5 392.5,537.8 311.8,652.1 274.2,658.8 382.2,510.5 425.5,506.1 
			465.2,522.5 538.2,694.8 		"/>
		<polygon class="st0" points="448.2,504.5 676.2,461.1 651.2,482.8 476,517.6 		"/>
		<polygon class="st0" points="480.2,527.6 654.2,493.6 681.7,660.1 548.7,694.8 		"/>
	</g>
</g>
</svg>
