<svg width="86" height="86" viewBox="0 0 86 86" fill="none" xmlns="http://www.w3.org/2000/svg">
<path d="M43 0.899994L37.6 11.4C34.7 16.9 35.7 23.7 40.1 28.1L43 31L45.9 28.1C50.2 23.7 51.2 16.9 48.4 11.4L43 0.899994ZM43 15.9C44.7 15.9 46 17.3 46 18.9C46 20.6 44.7 21.9 43 21.9C41.3 21.9 40 20.5 40 18.9C40 17.2 41.3 15.9 43 15.9ZM16.8 16.8L18.3 28C18.6 30.3 20.3 32.1 22.5 32.7L36.1 36.1L32.7 22.5C32.2 20.3 30.3 18.6 28 18.3L16.8 16.8ZM69.2 16.8L58 18.3C55.7 18.6 53.9 20.3 53.3 22.5L49.9 36.1L63.5 32.7C65.7 32.2 67.4 30.3 67.7 28L69.2 16.8ZM26.4 23.6C27.9 23.6 29.2 24.8 29.2 26.4C29.2 27.2 28.9 27.9 28.4 28.4C27.9 28.9 27.2 29.2 26.4 29.2C24.9 29.2 23.6 28 23.6 26.4C23.6 25.7 23.9 24.9 24.4 24.4C24.9 23.9 25.6 23.6 26.4 23.6ZM59.5 23.6C60.3 23.6 61 23.9 61.5 24.4C62 24.9 62.3 25.6 62.3 26.4C62.3 27.9 61.1 29.2 59.5 29.2C58.7 29.2 58 28.9 57.5 28.4C57 27.9 56.7 27.2 56.7 26.4C56.7 24.9 57.9 23.6 59.5 23.6ZM68.06 35.958C66.1763 35.9405 64.3079 36.2979 62.5637 37.0093C60.8194 37.7207 59.2341 38.772 57.9 40.102L55 43L57.9 45.9C62.3 50.2 69.1 51.2 74.6 48.4L85.1 43L74.6 37.6C72.5827 36.5374 70.3399 35.9743 68.06 35.958ZM17.94 36.028C15.6669 36.034 13.4269 36.5731 11.4 37.602L0.899994 43L11.4 48.4C16.9 51.3 23.7 50.3 28.1 45.9L31 43L28.1 40.1C25.352 37.414 21.664 36.014 17.94 36.028ZM43 37.398C41.5 37.398 40.1 38 39.1 39C38.1 40 37.5 41.4 37.5 42.9C37.5 44.4 38.1 45.8 39.1 46.8C40.1 47.8 41.5 48.4 43 48.4C44.5 48.4 45.9 47.8 46.9 46.8C47.9 45.8 48.5 44.4 48.5 42.9C48.5 41.4 47.9 40 46.9 39C45.9 38 44.5 37.4 43 37.4V37.398ZM67 39.898C68.7 39.898 70 41.198 70 42.898C70 44.598 68.6 45.898 67 45.898C65.4 45.898 64 44.598 64 42.898C64 41.198 65.4 39.898 67 39.898ZM19 40C20.6 40 22 41.3 22 43C22 44.7 20.6 46 19 46C17.3 46 16 44.7 16 43C16 41.3 17.4 40 19 40ZM36.1 49.9L22.5 53.3C20.3 53.8 18.6 55.7 18.3 58L16.8 69.2L28 67.7C30.3 67.4 32.1 65.7 32.7 63.5L36.1 49.9ZM49.9 49.9L53.3 63.5C53.8 65.7 55.7 67.4 58 67.7L69.2 69.1L67.7 57.9C67.4 55.6 65.7 53.8 63.5 53.2L49.9 49.9ZM43 55L40.1 57.9C35.8 62.3 34.8 69.1 37.6 74.6L43 85.1L48.4 74.6C51.3 69.1 50.3 62.3 45.9 57.9L43 55ZM59.6 56.7C61.1 56.7 62.4 57.9 62.4 59.5C62.4 60.3 62.1 61 61.6 61.5C61.1 62 60.4 62.3 59.6 62.3C58.1 62.3 56.8 61.1 56.8 59.5C56.8 58.7 57.1 58 57.6 57.5C58.1 57 58.8 56.7 59.6 56.7ZM26.5 56.8C27.3 56.8 28 57.1 28.5 57.6C29 58.1 29.3 58.8 29.3 59.6C29.3 61.1 28.1 62.4 26.5 62.4C25.7 62.4 25 62 24.5 61.6C24 61.1 23.7 60.4 23.7 59.6C23.7 58.1 24.9 56.8 26.5 56.8ZM43 64C44.7 64 46 65.4 46 67C46 68.7 44.7 70 43 70C41.3 70 40 68.6 40 67C40 65.4 41.3 64 43 64Z" fill="currentColor"/>
</svg>
